<svg xmlns="http://www.w3.org/2000/svg" viewBox="0 0 480 490" role="img" style="font-family:system-ui,sans-serif"><rect width="480" height="490" rx="22" fill="#f7f3fa"/><g data-panel="state-1"><text x="240" y="42" font-size="26" fill="#17212b" text-anchor="middle">高於收縮壓</text><text x="240" y="76" font-size="22" fill="#17212b" text-anchor="middle">壓脈帶 150 mmHg</text><rect x="195" y="95" width="90" height="140" rx="12" fill="#d2c5e2"/><path d="M35 146 H174 Q195 174 240 174 Q282 174 306 146 H445" fill="none" stroke="#ab2944" stroke-width="6" stroke-linecap="round" stroke-linejoin="round" /><path d="M35 202 H174 Q195 174 240 174 Q282 174 306 202 H445" fill="none" stroke="#ab2944" stroke-width="6" stroke-linecap="round" stroke-linejoin="round" /><text x="240" y="268" font-size="22" fill="#17212b" text-anchor="middle">肱動脈剖面</text><text x="240" y="309" font-size="24" fill="#17212b" text-anchor="middle">無血流</text><text x="240" y="347" font-size="24" fill="#65428b" text-anchor="middle">無聲</text><path d="M55 390 H425" fill="none" stroke="#9d8eaa" stroke-width="8" stroke-linecap="round" stroke-linejoin="round" /><text x="70" y="429" font-size="22" fill="#17212b" text-anchor="middle">80</text><text x="350" y="429" font-size="22" fill="#17212b" text-anchor="middle">120</text><text x="240" y="467" font-size="22" fill="#17212b" text-anchor="middle">示例舒張壓／收縮壓 mmHg</text><circle cx="388.0" cy="390" r="10" fill="#ab2944"/></g><g data-panel="state-2"><text x="240" y="42" font-size="26" fill="#17212b" text-anchor="middle">介於兩者之間</text><text x="240" y="76" font-size="22" fill="#17212b" text-anchor="middle">壓脈帶 100 mmHg</text><rect x="195" y="95" width="90" height="140" rx="12" fill="#d2c5e2"/><path d="M35 146 H174 Q195 167 240 167 Q282 167 306 146 H445" fill="none" stroke="#ab2944" stroke-width="6" stroke-linecap="round" stroke-linejoin="round" /><path d="M35 202 H174 Q195 181 240 181 Q282 181 306 202 H445" fill="none" stroke="#ab2944" stroke-width="6" stroke-linecap="round" stroke-linejoin="round" /><path d="M65 174 H405" fill="none" stroke="#216d9d" stroke-width="5" stroke-linecap="round" stroke-linejoin="round" stroke-dasharray="10 8"/><path d="M405 166 l15 8 l-15 8" fill="#216d9d"/><text x="240" y="268" font-size="22" fill="#17212b" text-anchor="middle">肱動脈剖面</text><text x="240" y="309" font-size="24" fill="#17212b" text-anchor="middle">收縮期斷續衝過</text><text x="240" y="347" font-size="24" fill="#65428b" text-anchor="middle">柯氏音</text><path d="M55 390 H425" fill="none" stroke="#9d8eaa" stroke-width="8" stroke-linecap="round" stroke-linejoin="round" /><text x="70" y="429" font-size="22" fill="#17212b" text-anchor="middle">80</text><text x="350" y="429" font-size="22" fill="#17212b" text-anchor="middle">120</text><text x="240" y="467" font-size="22" fill="#17212b" text-anchor="middle">示例舒張壓／收縮壓 mmHg</text><circle cx="203.0" cy="390" r="10" fill="#ab2944"/></g><g data-panel="state-3"><text x="240" y="42" font-size="26" fill="#17212b" text-anchor="middle">低於舒張壓</text><text x="240" y="76" font-size="22" fill="#17212b" text-anchor="middle">壓脈帶 60 mmHg</text><rect x="195" y="95" width="90" height="140" rx="12" fill="#d2c5e2"/><path d="M35 146 H174 Q195 151 240 151 Q282 151 306 146 H445" fill="none" stroke="#ab2944" stroke-width="6" stroke-linecap="round" stroke-linejoin="round" /><path d="M35 202 H174 Q195 197 240 197 Q282 197 306 202 H445" fill="none" stroke="#ab2944" stroke-width="6" stroke-linecap="round" stroke-linejoin="round" /><path d="M65 174 H405" fill="none" stroke="#216d9d" stroke-width="5" stroke-linecap="round" stroke-linejoin="round" /><path d="M405 166 l15 8 l-15 8" fill="#216d9d"/><text x="240" y="268" font-size="22" fill="#17212b" text-anchor="middle">肱動脈剖面</text><text x="240" y="309" font-size="24" fill="#17212b" text-anchor="middle">恢復平順</text><text x="240" y="347" font-size="24" fill="#65428b" text-anchor="middle">聲音消失</text><path d="M55 390 H425" fill="none" stroke="#9d8eaa" stroke-width="8" stroke-linecap="round" stroke-linejoin="round" /><text x="70" y="429" font-size="22" fill="#17212b" text-anchor="middle">80</text><text x="350" y="429" font-size="22" fill="#17212b" text-anchor="middle">120</text><text x="240" y="467" font-size="22" fill="#17212b" text-anchor="middle">示例舒張壓／收縮壓 mmHg</text><circle cx="55.0" cy="390" r="10" fill="#ab2944"/></g></svg>