<svg xmlns="http://www.w3.org/2000/svg" viewBox="0 0 480 462" role="img" style="font-family:system-ui,sans-serif"><rect width="480" height="462" rx="22" fill="#f7f3fa"/><text x="240" y="36" font-size="24" fill="#17212b" text-anchor="middle">心輸出量</text><rect x="28" y="62" width="424" height="60" rx="12" fill="#fff" stroke="#d8cce5"/><text x="240.0" y="94" font-size="22" fill="#17212b" text-anchor="middle">心率 HR（次／分）</text><path d="M240 127 v18" fill="none" stroke="#65428b" stroke-width="3" stroke-linecap="round" stroke-linejoin="round" /><path d="M232 138 l8 12 l8 -12" fill="#65428b"/><rect x="28" y="158" width="424" height="60" rx="12" fill="#e4f0f6" stroke="#d8cce5"/><text x="240.0" y="190" font-size="22" fill="#17212b" text-anchor="middle">× 每搏量 SV（mL）</text><path d="M240 223 v18" fill="none" stroke="#65428b" stroke-width="3" stroke-linecap="round" stroke-linejoin="round" /><path d="M232 234 l8 12 l8 -12" fill="#65428b"/><rect x="28" y="254" width="424" height="90" rx="12" fill="#fff" stroke="#d8cce5"/><text x="240.0" y="286" font-size="22" fill="#17212b" text-anchor="middle">70 × 70 ≈ 4900 mL/min</text><text x="240.0" y="316" font-size="22" fill="#17212b" text-anchor="middle">靜息約 5 L/min</text><path d="M240 349 v18" fill="none" stroke="#65428b" stroke-width="3" stroke-linecap="round" stroke-linejoin="round" /><path d="M232 360 l8 12 l8 -12" fill="#65428b"/><rect x="28" y="380" width="424" height="60" rx="12" fill="#e4f0f6" stroke="#d8cce5"/><text x="240.0" y="412" font-size="22" fill="#17212b" text-anchor="middle">長時間左右心輸出量相等</text></svg>