<svg xmlns="http://www.w3.org/2000/svg" viewBox="0 0 720 210"><rect width="720" height="210" fill="#071522"/><style>.slow,.rest,.fast{display:none}.state-figure[data-lab-state=slow] .slow,.state-figure[data-lab-state=rest] .rest,.state-figure[data-lab-state=fast] .fast{display:block}.trace{fill:none;stroke:#4de3a2;stroke-width:5;stroke-dasharray:10 8;animation:dash 1.6s linear infinite}@keyframes dash{to{stroke-dashoffset:-32}}</style><g class="slow"><path class="trace" d="M20 125H150l12 24 14-90 16 112 12-46h220l12 24 14-90 16 112 12-46h220"/><text x="24" y="35" fill="#bcebd5" font-size="22">較慢節律：R-R 間距較長</text></g><g class="rest"><path class="trace" d="M20 125H90l12 24 14-90 16 112 12-46h110l12 24 14-90 16 112 12-46h110l12 24 14-90 16 112 12-46h110"/><text x="24" y="35" fill="#bcebd5" font-size="22">安靜節律：規則 R-R 間距</text></g><g class="fast"><path class="trace" d="M20 125H58l9 20 10-72 12 90 9-38h55l9 20 10-72 12 90 9-38h55l9 20 10-72 12 90 9-38h55l9 20 10-72 12 90 9-38h55"/><text x="24" y="35" fill="#bcebd5" font-size="22">較快節律：R-R 間距較短</text></g></svg>
