<svg xmlns="http://www.w3.org/2000/svg" viewBox="0 0 480 700" role="img" style="font-family:system-ui,sans-serif"><rect width="480" height="700" rx="22" fill="#f7f3fa"/><circle cx="240" cy="80" r="42" fill="#eee4dd"/><path d="M210 120 L180 140 L120 280 L145 292 L194 208 L195 345 L174 580 L211 580 L240 388 L269 580 L306 580 L285 345 L286 208 L335 292 L360 280 L300 140 L270 120 Z" fill="#eee4dd" stroke="#cec0b6"/><text x="76" y="36" font-size="22" fill="#17212b" text-anchor="middle">人體右</text><text x="376" y="36" font-size="22" fill="#17212b" text-anchor="middle">人體左</text><g data-panel="state-1"><circle cx="240" cy="171" r="12" fill="#24735c"/><circle cx="199" cy="485" r="12" fill="#24735c"/><text x="240" y="622" font-size="24" fill="#17212b" text-anchor="middle">初級：骨髓、胸腺</text></g><g data-panel="state-2"><circle cx="205" cy="122" r="12" fill="#24735c"/><circle cx="275" cy="122" r="12" fill="#24735c"/><circle cx="300" cy="276" r="12" fill="#24735c"/><circle cx="183" cy="192" r="12" fill="#24735c"/><circle cx="296" cy="192" r="12" fill="#24735c"/><circle cx="223" cy="362" r="12" fill="#24735c"/><circle cx="258" cy="362" r="12" fill="#24735c"/><text x="240" y="622" font-size="24" fill="#17212b" text-anchor="middle">次級：淋巴結、脾臟、扁桃腺</text></g><g data-panel="state-3"><circle cx="240" cy="119" r="12" fill="#24735c"/><circle cx="271" cy="320" r="12" fill="#24735c"/><circle cx="209" cy="332" r="12" fill="#24735c"/><text x="240" y="622" font-size="24" fill="#17212b" text-anchor="middle">黏膜：扁桃腺、培氏斑、闌尾</text></g></svg>