<svg xmlns="http://www.w3.org/2000/svg" viewBox="0 0 400 360" role="img" aria-label="主動脈弓三分支"><title>主動脈弓三分支</title><style>text{font-family:system-ui,sans-serif;font-size:calc(18px * var(--font-scale,1))}.title{font-weight:700}</style><rect width="400" height="360" rx="14" fill="#fafbfd"/><text x="18" y="30" font-size="18" fill="#17212b" text-anchor="start">主動脈弓三分支</text><path d="M145 270V210Q175 115 300 185V280" fill="none" stroke="#a71930" stroke-width="8" stroke-linecap="round" stroke-linejoin="round" /><path d="M183 163L170 105M170 105L105 105M170 105V65M230 155V65M277 165L340 90" fill="none" stroke="#a71930" stroke-width="6" stroke-linecap="round" stroke-linejoin="round" /><text x="15" y="215" font-size="18" fill="#a71930" text-anchor="start">頭臂動脈</text><path d="M15 221H182V160" fill="none" stroke="#a71930" stroke-width="1.5" stroke-linecap="round" stroke-linejoin="round" /><circle cx="182" cy="160" r="3" fill="#a71930"/><text x="15" y="70" font-size="18" fill="#a71930" text-anchor="start">右頸總</text><path d="M15 76H170V78" fill="none" stroke="#a71930" stroke-width="1.5" stroke-linecap="round" stroke-linejoin="round" /><circle cx="170" cy="78" r="3" fill="#a71930"/><text x="15" y="135" font-size="18" fill="#a71930" text-anchor="start">右鎖骨下</text><path d="M15 141H110V105" fill="none" stroke="#a71930" stroke-width="1.5" stroke-linecap="round" stroke-linejoin="round" /><circle cx="110" cy="105" r="3" fill="#a71930"/><text x="205" y="50" font-size="18" fill="#a71930" text-anchor="start">左頸總</text><path d="M205 56H230V75" fill="none" stroke="#a71930" stroke-width="1.5" stroke-linecap="round" stroke-linejoin="round" /><circle cx="230" cy="75" r="3" fill="#a71930"/><text x="285" y="115" font-size="18" fill="#a71930" text-anchor="start">左鎖骨下</text><path d="M285 121H325V107" fill="none" stroke="#a71930" stroke-width="1.5" stroke-linecap="round" stroke-linejoin="round" /><circle cx="325" cy="107" r="3" fill="#a71930"/><text x="20" y="325" font-size="18" fill="#17212b" text-anchor="start">右側多一段頭臂動脈</text></svg>