<svg xmlns="http://www.w3.org/2000/svg" viewBox="0 0 600 810" role="img" aria-label="全身主要動靜脈｜圖左＝人體右"><style>text{font-family:system-ui,sans-serif;font-size:calc(28px * var(--font-scale,1))}.anatomy-label path{opacity:.65}[data-label-state]{display:none}[data-label-state="overview"]{display:block}</style><text x="12" y="35">圖左＝人體右</text><g transform="translate(140 0) scale(.8 1)"><g data-anatomy-base="major-vessels-anatomy-base.svg"/></g><g class="anatomy-label"><path d="M278.4 90L92 75" stroke="#a71930" stroke-width="1.2" fill="none"/><circle cx="278.4" cy="90" r="2.2" fill="#a71930"/><text x="8" y="83" fill="#a71930">顳動脈</text></g><circle cx="278.4" cy="90" r="6" fill="#fff" stroke="#a71930" stroke-width="2"/><g class="anatomy-label"><path d="M320.0 132L420 124" stroke="#a71930" stroke-width="1.2" fill="none"/><circle cx="320.0" cy="132" r="2.2" fill="#a71930"/><text x="420" y="132" fill="#a71930">頸動脈</text></g><circle cx="320.0" cy="132" r="6" fill="#fff" stroke="#a71930" stroke-width="2"/><g class="anatomy-label"><path d="M237.60000000000002 270L92 257" stroke="#a71930" stroke-width="1.2" fill="none"/><circle cx="237.60000000000002" cy="270" r="2.2" fill="#a71930"/><text x="8" y="265" fill="#a71930">肱動脈</text></g><circle cx="237.60000000000002" cy="270" r="6" fill="#fff" stroke="#a71930" stroke-width="2"/><g class="anatomy-label"><path d="M392.0 359L420 399" stroke="#a71930" stroke-width="1.2" fill="none"/><circle cx="392.0" cy="359" r="2.2" fill="#a71930"/><text x="420" y="407" fill="#a71930">橈動脈</text></g><circle cx="392.0" cy="359" r="6" fill="#fff" stroke="#a71930" stroke-width="2"/><g class="anatomy-label"><path d="M284.0 442L92 456" stroke="#a71930" stroke-width="1.2" fill="none"/><circle cx="284.0" cy="442" r="2.2" fill="#a71930"/><text x="8" y="464" fill="#a71930">股動脈</text></g><circle cx="284.0" cy="442" r="6" fill="#fff" stroke="#a71930" stroke-width="2"/><g class="anatomy-label"><path d="M322.4 545L420 552" stroke="#a71930" stroke-width="1.2" fill="none"/><circle cx="322.4" cy="545" r="2.2" fill="#a71930"/><text x="420" y="560" fill="#a71930">膕（膝後）</text></g><circle cx="322.4" cy="545" r="6" fill="#fff" stroke="#a71930" stroke-width="2"/><g class="anatomy-label"><path d="M275.20000000000005 724L120 723" stroke="#a71930" stroke-width="1.2" fill="none"/><circle cx="275.20000000000005" cy="724" r="2.2" fill="#a71930"/><text x="8" y="731" fill="#a71930">足背動脈</text></g><circle cx="275.20000000000005" cy="724" r="6" fill="#fff" stroke="#a71930" stroke-width="2"/><text x="10" y="790">虛線：位於後側的血管</text></svg>