<svg xmlns="http://www.w3.org/2000/svg" viewBox="0 0 600 600" role="img" aria-label="主動脈弓三分支：頭臂動脈先分叉"><title>主動脈弓三分支：頭臂動脈先分叉</title><style>text{font-family:system-ui,sans-serif;font-size:calc(26px * var(--font-scale,1));fill:#17212b}.aortic-dim .aortic-tube{stroke:#D9DDE3}.aortic-dim .aortic-edge{stroke:#C5CBD4}.aortic-dim ellipse{fill:#D9DDE3;stroke:#C5CBD4}</style><defs><linearGradient id="aorta-red-arch"><stop stop-color="#A3182C"/><stop offset=".45" stop-color="#F06A7E"/><stop offset=".7" stop-color="#D7263D"/><stop offset="1" stop-color="#A3182C"/></linearGradient></defs><text x="12" y="36">圖左＝人體右</text><rect x="174" y="106" width="124" height="124" rx="12" fill="#fff0e7" stroke="#e5c7b4"/><g data-aortic-segment=""><path class="aortic-edge" d="M247 443L240 337Q239 280 270 240" fill="none" stroke="#A3182C" stroke-width="103" stroke-linecap="round"/><path class="aortic-tube" d="M247 443L240 337Q239 280 270 240" fill="none" stroke="url(#aorta-red-arch)" stroke-width="100" stroke-linecap="round"/></g><g data-aortic-segment=""><path class="aortic-edge" d="M270 240C313 194 389 205 428 258Q461 291 450 330" fill="none" stroke="#A3182C" stroke-width="108" stroke-linecap="round"/><path class="aortic-tube" d="M270 240C313 194 389 205 428 258Q461 291 450 330" fill="none" stroke="url(#aorta-red-arch)" stroke-width="105" stroke-linecap="round"/></g><g data-aortic-segment=""><path class="aortic-edge" d="M450 330Q436 385 426 443" fill="none" stroke="#A3182C" stroke-width="90" stroke-linecap="round"/><path class="aortic-tube" d="M450 330Q436 385 426 443" fill="none" stroke="url(#aorta-red-arch)" stroke-width="87" stroke-linecap="round"/></g><g data-aortic-segment=""><path class="aortic-edge" d="M270 240L258 184L249 168" fill="none" stroke="#A3182C" stroke-width="45" stroke-linecap="round"/><path class="aortic-tube" d="M270 240L258 184L249 168" fill="none" stroke="url(#aorta-red-arch)" stroke-width="42" stroke-linecap="round"/></g><g data-aortic-segment=""><path class="aortic-edge" d="M249 168L225 141L223 114" fill="none" stroke="#A3182C" stroke-width="39" stroke-linecap="round"/><path class="aortic-tube" d="M249 168L225 141L223 114" fill="none" stroke="url(#aorta-red-arch)" stroke-width="36" stroke-linecap="round"/></g><g data-aortic-segment=""><path class="aortic-edge" d="M249 168Q216 162 189 183" fill="none" stroke="#A3182C" stroke-width="39" stroke-linecap="round"/><path class="aortic-tube" d="M249 168Q216 162 189 183" fill="none" stroke="url(#aorta-red-arch)" stroke-width="36" stroke-linecap="round"/></g><g data-aortic-segment=""><path class="aortic-edge" d="M333 216L328 147" fill="none" stroke="#A3182C" stroke-width="45" stroke-linecap="round"/><path class="aortic-tube" d="M333 216L328 147" fill="none" stroke="url(#aorta-red-arch)" stroke-width="42" stroke-linecap="round"/></g><g data-aortic-segment=""><path class="aortic-edge" d="M425 251L458 192" fill="none" stroke="#A3182C" stroke-width="45" stroke-linecap="round"/><path class="aortic-tube" d="M425 251L458 192" fill="none" stroke="url(#aorta-red-arch)" stroke-width="42" stroke-linecap="round"/></g><path class="aortic-boundary" d="M206 219L324 261" stroke="#111" stroke-width="3.75" stroke-dasharray="1 10" stroke-linecap="round" fill="none"/><path class="aortic-boundary" d="M387 310L513 350" stroke="#111" stroke-width="3.75" stroke-dasharray="1 10" stroke-linecap="round" fill="none"/><path class="label-leader" d="M223 123L168 88" stroke="#61707c" stroke-width="1.5" fill="none"/><text x="12" y="82">右頸總動脈</text><path class="label-leader" d="M205 175L166 212" stroke="#61707c" stroke-width="1.5" fill="none"/><text x="12" y="206">右鎖骨下動脈</text><path class="label-leader" d="M258 193L130 286" stroke="#61707c" stroke-width="1.5" fill="none"/><text x="12" y="280">頭臂動脈</text><path class="label-leader" d="M352 93L330 165" stroke="#61707c" stroke-width="1.5" fill="none"/><text x="300" y="82">左頸總動脈</text><path class="label-leader" d="M470 148L450 207" stroke="#61707c" stroke-width="1.5" fill="none"/><text x="417" y="137">左鎖骨下動脈</text><path class="label-leader" d="M328 221L132 377" stroke="#61707c" stroke-width="1.5" fill="none"/><text x="12" y="371">主動脈弓</text><text x="12" y="507">淡框：右側多一段頭臂動脈</text><text x="12" y="551">兩條點虛線之間＝主動脈弓</text></svg>